<?xml version="1.0" encoding="UTF-8"?>
<svg height="16px" viewBox="0 0 16 16" width="16px" xmlns="http://www.w3.org/2000/svg">
    <path d="m 5.765625 1.113281 c -2.578125 0.464844 -4.785156 2.367188 -5.515625 5.035157 c -0.976562 3.554687 0.996094 7.28125 4.484375 8.476562 c 0.523437 0.175781 1.089844 -0.101562 1.269531 -0.625 c 0.179688 -0.523438 -0.101562 -1.089844 -0.621094 -1.269531 c -2.511718 -0.859375 -3.90625 -3.496094 -3.203124 -6.054688 c 0.699218 -2.554687 3.246093 -4.113281 5.84375 -3.570312 c 2.59375 0.542969 4.304687 2.984375 3.925781 5.609375 c -0.078125 0.546875 0.300781 1.054687 0.847656 1.132812 c 0.542969 0.078125 1.050781 -0.300781 1.132813 -0.847656 c 0.527343 -3.648438 -1.890626 -7.097656 -5.5 -7.851562 c -0.902344 -0.1875 -1.804688 -0.191407 -2.664063 -0.035157 z m 0 0"/>
    <path d="m 10 11 h 6 v 2 h -6 z m 0 0"/>
    <path d="m 10 14 h 6 v 2 h -6 z m 0 0"/>
    <path d="m 9 12 c 0 0.550781 -0.449219 1 -1 1 s -1 -0.449219 -1 -1 s 0.449219 -1 1 -1 s 1 0.449219 1 1 z m 0 0"/>
    <path d="m 9 15 c 0 0.550781 -0.449219 1 -1 1 s -1 -0.449219 -1 -1 s 0.449219 -1 1 -1 s 1 0.449219 1 1 z m 0 0"/>
    <path d="m 7 4 c -0.550781 0 -1 0.449219 -1 1 v 2.382812 l -1.445312 0.722657 c -0.496094 0.246093 -0.695313 0.847656 -0.449219 1.34375 c 0.246093 0.492187 0.847656 0.691406 1.34375 0.445312 l 2 -1 c 0.335937 -0.167969 0.550781 -0.515625 0.550781 -0.894531 v -3 c 0 -0.550781 -0.449219 -1 -1 -1 z m 0 0"/>
</svg>
