<?xml version="1.0" encoding="UTF-8"?>
<svg height="16px" viewBox="0 0 16 16" width="16px" xmlns="http://www.w3.org/2000/svg">
    <g fill="#241f31">
        <path d="m 8.019531 1.050781 c -2.988281 -0.007812 -5.65625 1.90625 -6.605469 4.742188 c -0.175781 0.523437 0.105469 1.089843 0.628907 1.261719 c 0.523437 0.175781 1.089843 -0.105469 1.269531 -0.628907 c 0.675781 -2.019531 2.566406 -3.378906 4.699219 -3.375 c 2.132812 0.007813 4.015625 1.375 4.6875 3.398438 c 0.082031 0.253906 0.261719 0.460937 0.496093 0.582031 c 0.238282 0.121094 0.511719 0.140625 0.765626 0.054688 c 0.253906 -0.082032 0.460937 -0.261719 0.582031 -0.496094 c 0.117187 -0.238282 0.136719 -0.511719 0.054687 -0.765625 c -0.9375 -2.835938 -3.59375 -4.765625 -6.578125 -4.773438 z m 0 0"/>
        <path d="m 0 8 c 0 2.140625 0.859375 4.195312 2.386719 5.699219 c 1.496093 1.476562 3.515625 2.300781 5.613281 2.300781 v -6 c -0.527344 0 -1.027344 -0.207031 -1.40625 -0.578125 c -0.378906 -0.375 -0.59375 -0.886719 -0.59375 -1.421875 z m 0 0"/>
        <path d="m 10.957031 7.980469 c 0 1.269531 -0.824219 2.351562 -1.957031 2.800781 v 4.125 c 3.324219 -0.5625 5.957031 -3.484375 5.957031 -6.925781 z m -2.957031 3.015625 c -0.027344 0 -0.058594 0.003906 -0.085938 0.003906 l 0.085938 4 z m 0 0"/>
    </g>
    <path d="m 51.832031 13 c -1.335937 0.019531 -2.628906 -0.5 -3.582031 -1.4375 c -0.953125 -0.941406 -1.488281 -2.222656 -1.488281 -3.5625" fill="none" stroke="#241f31" stroke-width="6"/>
</svg>
