<?xml version="1.0" encoding="UTF-8"?>
<svg height="128px" viewBox="0 0 128 128" width="128px" xmlns="http://www.w3.org/2000/svg" xmlns:xlink="http://www.w3.org/1999/xlink">
    <linearGradient id="a" gradientUnits="userSpaceOnUse" x1="0" x2="20.214409" y1="95.994934" y2="95.994934">
        <stop offset="0" stop-color="#196944"/>
        <stop offset="1" stop-color="#2bb877"/>
    </linearGradient>
    <clipPath id="b">
        <path d="m 4 8 h 120 v 120 h -120 z m 0 0"/>
    </clipPath>
    <clipPath id="c">
        <path d="m 64 8 c -33.136719 0 -60 26.863281 -60 60 c 0 33.140625 26.863281 60 60 60 s 60 -26.859375 60 -60 c 0 -33.136719 -26.863281 -60 -60 -60 z m 0 20 c 22.089844 0 40 17.910156 40 40 c 0 22.09375 -17.910156 40.003906 -40 40 c -22.089844 0.003906 -40 -17.90625 -40 -40 c 0 -22.089844 17.910156 -40 40 -40 z m 0 0"/>
    </clipPath>
    <linearGradient id="d" gradientUnits="userSpaceOnUse" x1="27.583904" x2="64" y1="31.372009" y2="31.305725">
        <stop offset="0" stop-color="#4ed78a"/>
        <stop offset="0.819413" stop-color="#6fdfa0" stop-opacity="0.984314"/>
        <stop offset="1" stop-color="#33d17a" stop-opacity="0.984314"/>
    </linearGradient>
    <clipPath id="e">
        <path d="m 64 8 h 60 v 112 h -60 z m 0 0"/>
    </clipPath>
    <clipPath id="f">
        <path d="m 64 8 c -33.136719 0 -60 26.863281 -60 60 c 0 33.140625 26.863281 60 60 60 s 60 -26.859375 60 -60 c 0 -33.136719 -26.863281 -60 -60 -60 z m 0 20 c 22.089844 0 40 17.910156 40 40 c 0 22.09375 -17.910156 40.003906 -40 40 c -22.089844 0.003906 -40 -17.90625 -40 -40 c 0 -22.089844 17.910156 -40 40 -40 z m 0 0"/>
    </clipPath>
    <linearGradient id="g" gradientUnits="userSpaceOnUse" x1="61.302681" x2="128" y1="37.954178" y2="37.954178">
        <stop offset="0" stop-color="#1e77e1"/>
        <stop offset="0.470503" stop-color="#80b3ee"/>
        <stop offset="0.783715" stop-color="#62a0ea"/>
        <stop offset="1" stop-color="#124786"/>
    </linearGradient>
    <clipPath id="h">
        <path d="m 18 89 h 92 v 39 h -92 z m 0 0"/>
    </clipPath>
    <clipPath id="i">
        <path d="m 64 8 c -33.136719 0 -60 26.863281 -60 60 c 0 33.140625 26.863281 60 60 60 s 60 -26.859375 60 -60 c 0 -33.136719 -26.863281 -60 -60 -60 z m 0 20 c 22.089844 0 40 17.910156 40 40 c 0 22.09375 -17.910156 40.003906 -40 40 c -22.089844 0.003906 -40 -17.90625 -40 -40 c 0 -22.089844 17.910156 -40 40 -40 z m 0 0"/>
    </clipPath>
    <linearGradient id="j" gradientUnits="userSpaceOnUse" x1="15.480564" x2="110.599899" y1="115.241577" y2="115.241577">
        <stop offset="0" stop-color="#103667"/>
        <stop offset="0.469878" stop-color="#1c64be" stop-opacity="0.988235"/>
        <stop offset="1" stop-color="#14498a" stop-opacity="0.976471"/>
    </linearGradient>
    <clipPath id="k">
        <path d="m 4 30 h 26 v 56 h -26 z m 0 0"/>
    </clipPath>
    <clipPath id="l">
        <path d="m 64 8 c -33.136719 0 -60 26.863281 -60 60 c 0 33.140625 26.863281 60 60 60 s 60 -26.859375 60 -60 c 0 -33.136719 -26.863281 -60 -60 -60 z m 0 20 c 22.089844 0 40 17.910156 40 40 c 0 22.09375 -17.910156 40.003906 -40 40 c -22.089844 0.003906 -40 -17.90625 -40 -40 c 0 -22.089844 17.910156 -40 40 -40 z m 0 0"/>
    </clipPath>
    <linearGradient id="m" gradientUnits="userSpaceOnUse" x1="15.757822" x2="30.288727" y1="54.044312" y2="49.288605">
        <stop offset="0" stop-color="#0d3824"/>
        <stop offset="1" stop-color="#49d493"/>
    </linearGradient>
    <clipPath id="n">
        <path d="m 4 4 h 120 v 120 h -120 z m 0 0"/>
    </clipPath>
    <clipPath id="o">
        <path d="m 64 4 c -33.136719 0 -60 26.863281 -60 60 c 0 33.140625 26.863281 60 60 60 s 60 -26.859375 60 -60 c 0 -33.136719 -26.863281 -60 -60 -60 z m 0 20 c 22.089844 0 40 17.910156 40 40 c 0 22.09375 -17.910156 40.003906 -40 40 c -22.089844 0.003906 -40 -17.90625 -40 -40 c 0 -22.089844 17.910156 -40 40 -40 z m 0 0"/>
    </clipPath>
    <clipPath id="p">
        <path d="m 64 4 h 60 v 108 h -60 z m 0 0"/>
    </clipPath>
    <clipPath id="q">
        <path d="m 64 4 c -33.136719 0 -60 26.863281 -60 60 c 0 33.140625 26.863281 60 60 60 s 60 -26.859375 60 -60 c 0 -33.136719 -26.863281 -60 -60 -60 z m 0 20 c 22.089844 0 40 17.910156 40 40 c 0 22.09375 -17.910156 40.003906 -40 40 c -22.089844 0.003906 -40 -17.90625 -40 -40 c 0 -22.089844 17.910156 -40 40 -40 z m 0 0"/>
    </clipPath>
    <clipPath id="r">
        <path d="m 8 64 h 112 v 60 h -112 z m 0 0"/>
    </clipPath>
    <clipPath id="s">
        <path d="m 64 4 c -33.136719 0 -60 26.863281 -60 60 c 0 33.140625 26.863281 60 60 60 s 60 -26.859375 60 -60 c 0 -33.136719 -26.863281 -60 -60 -60 z m 0 20 c 22.089844 0 40 17.910156 40 40 c 0 22.09375 -17.910156 40.003906 -40 40 c -22.089844 0.003906 -40 -17.90625 -40 -40 c 0 -22.089844 17.910156 -40 40 -40 z m 0 0"/>
    </clipPath>
    <path d="m 24.707031 102.003906 c -14.519531 -16.75 -16.824219 -40.863281 -5.742187 -60.058594" fill="#a51d2d"/>
    <path d="m 8.574219 35.945312 c -13.621094 23.589844 -10.773438 53.335938 7.066406 73.917969 l 18.136719 -15.71875 c -11.199219 -12.917969 -12.964844 -31.394531 -4.417969 -46.199219 z m 0 0" fill="url(#a)"/>
    <path d="m 120 64 c 0 30.929688 -25.070312 56 -56 56 s -56 -25.070312 -56 -56 s 25.070312 -56 56 -56 s 56 25.070312 56 56 z m 0 0" fill="#f6f5f4"/>
    <g clip-path="url(#b)">
        <g clip-path="url(#c)">
            <path d="m 124 68.003906 c 0 33.136719 -26.863281 60 -60 60 s -60 -26.863281 -60 -60 c 0 -33.136718 26.863281 -60 60 -60 s 60 26.863282 60 60 z m 0 0" fill="url(#d)"/>
        </g>
    </g>
    <g clip-path="url(#e)">
        <g clip-path="url(#f)">
            <path d="m 64 0 v 42 l 45.558594 61.046875 l -0.003906 16.953125 l 40.445312 -94 z m 0 0" fill="url(#g)"/>
        </g>
    </g>
    <g clip-path="url(#h)">
        <g clip-path="url(#i)">
            <path d="m 109.558594 103.046875 l -0.003906 7.878906 l -41.554688 31.074219 l -49.316406 -29.480469 l -0.242188 -9.472656 l 16.203125 -13.882813 z m 0 0" fill="url(#j)"/>
        </g>
    </g>
    <g clip-path="url(#k)">
        <g clip-path="url(#l)">
            <path d="m 29.054688 53.472656 l 0.304687 -9.472656 l -25.605469 -13.175781 l -15.722656 54.75 l 39.351562 -11.265625 l -1.148437 -9.34375 z m 0 0" fill="url(#m)"/>
        </g>
    </g>
    <g fill="#5e5c64">
        <path d="m 92 59.945312 h 4 v 12 h -4 z m 0 0"/>
        <path d="m 78 59.945312 h 4 v 8 h -4 z m 0 0"/>
        <path d="m 78 63.945312 h 18 v 4 h -18 z m 0 0"/>
        <path d="m 82 55.945312 h 10 v 4 h -10 z m 0 0"/>
        <path d="m 78 71.945312 h 14 v 4 h -14 z m 0 0"/>
        <path d="m 58 63.945312 h 18 v 4 h -18 z m 0 0"/>
        <path d="m 62 55.945312 h 14 v 4 h -14 z m 0 0"/>
        <path d="m 58 59.945312 h 4 v 8 h -4 z m 0 0"/>
        <path d="m 72 63.945312 h 4 v 8 h -4 z m 0 0"/>
        <path d="m 58 71.945312 h 14 v 4 h -14 z m 0 0"/>
        <path d="m 52 67.945312 h 2 v 2 h -2 z m 0 0"/>
        <path d="m 52 61.945312 h 2 v 2 h -2 z m 0 0"/>
        <path d="m 31 63.945312 h 18 v 4 h -18 z m 0 0"/>
        <path d="m 35 55.945312 h 14 v 4 h -14 z m 0 0"/>
        <path d="m 31 59.945312 h 4 v 8 h -4 z m 0 0"/>
        <path d="m 45 63.945312 h 4 v 8 h -4 z m 0 0"/>
        <path d="m 31 71.945312 h 14 v 4 h -14 z m 0 0"/>
    </g>
    <g clip-path="url(#n)">
        <g clip-path="url(#o)">
            <path d="m 124 64.003906 c 0 33.136719 -26.863281 60 -60 60 s -60 -26.863281 -60 -60 c 0 -33.136718 26.863281 -60 60 -60 s 60 26.863282 60 60 z m 0 0" fill="#8ff0a4"/>
        </g>
    </g>
    <g clip-path="url(#p)">
        <g clip-path="url(#q)">
            <path d="m 64 -4 v 68 l 56 48 l 30 -90 z m 0 0" fill="#99c1f1"/>
        </g>
    </g>
    <g clip-path="url(#r)">
        <g clip-path="url(#s)">
            <path d="m 64 64 l 56 48 l -52 26 l -60 -26 z m 0 0" fill="#1c71d8"/>
        </g>
    </g>
    <path d="m 24.707031 98.058594 c -14.519531 -16.75 -16.824219 -40.859375 -5.742187 -60.058594" fill="#ed333b"/>
    <path d="m 8.574219 32 c -13.621094 23.589844 -10.773438 53.335938 7.066406 73.917969 l 18.136719 -15.71875 c -11.199219 -12.914063 -12.964844 -31.394531 -4.417969 -46.199219 z m 0 0" fill="#2ec27e"/>
    <path d="m 18.65625 103.296875 l -0.023438 3.972656 l -2.992187 2.59375 l -0.007813 -3.9375 z m 0 0" fill="#196542"/>
</svg>
