<?xml version="1.0" encoding="UTF-8" standalone="no"?>
<svg
   height="128px"
   viewBox="0 0 128 128"
   width="128px"
   version="1.1"
   id="svg220"
   sodipodi:docname="com.lakoliu.Furtherance.Devel.svg"
   inkscape:version="1.1.2 (0a00cf5339, 2022-02-04)"
   xmlns:inkscape="http://www.inkscape.org/namespaces/inkscape"
   xmlns:sodipodi="http://sodipodi.sourceforge.net/DTD/sodipodi-0.dtd"
   xmlns:xlink="http://www.w3.org/1999/xlink"
   xmlns="http://www.w3.org/2000/svg"
   xmlns:svg="http://www.w3.org/2000/svg">
  <defs
     id="defs224">
    <linearGradient
       inkscape:collect="always"
       xlink:href="#a"
       id="linearGradient271"
       gradientUnits="userSpaceOnUse"
       gradientTransform="matrix(1,0,0,0.863636,0,-146.72727)"
       x1="8"
       y1="292"
       x2="120"
       y2="292" />
    <linearGradient
       inkscape:collect="always"
       xlink:href="#b"
       id="linearGradient273"
       gradientUnits="userSpaceOnUse"
       gradientTransform="rotate(180,71.999993,-90)"
       x1="27.99999"
       y1="-276"
       x2="79.999992"
       y2="-276" />
  </defs>
  <sodipodi:namedview
     id="namedview222"
     pagecolor="#ffffff"
     bordercolor="#666666"
     borderopacity="1.0"
     inkscape:pageshadow="2"
     inkscape:pageopacity="0.0"
     inkscape:pagecheckerboard="0"
     showgrid="false"
     inkscape:zoom="2.4002961"
     inkscape:cx="61.867368"
     inkscape:cy="51.660294"
     inkscape:window-width="1128"
     inkscape:window-height="683"
     inkscape:window-x="0"
     inkscape:window-y="0"
     inkscape:window-maximized="1"
     inkscape:current-layer="svg220" />
  <linearGradient
     id="a"
     gradientTransform="matrix(1 0 0 0.863636 0 -132.727272)"
     gradientUnits="userSpaceOnUse"
     x1="8"
     x2="120"
     y1="292"
     y2="292">
    <stop
       offset="0"
       stop-color="#62a0ea"
       id="stop2" />
    <stop
       offset="0.0357143"
       stop-color="#99c1f1"
       id="stop4" />
    <stop
       offset="0.0714286"
       stop-color="#62a0ea"
       id="stop6" />
    <stop
       offset="0.928571"
       stop-color="#62a0ea"
       id="stop8" />
    <stop
       offset="0.964286"
       stop-color="#99c1f1"
       id="stop10" />
    <stop
       offset="1"
       stop-color="#62a0ea"
       id="stop12" />
  </linearGradient>
  <linearGradient
     id="b"
     gradientTransform="matrix(-1 0 0 -1 143.999985 -166)"
     gradientUnits="userSpaceOnUse"
     x1="27.99999"
     x2="79.999992"
     y1="-276"
     y2="-276">
    <stop
       offset="0"
       stop-color="#c0bfbc"
       id="stop15" />
    <stop
       offset="0.0769231"
       stop-color="#f6f5f4"
       id="stop17" />
    <stop
       offset="0.153846"
       stop-color="#c0bfbc"
       id="stop19" />
    <stop
       offset="0.846154"
       stop-color="#c0bfbc"
       id="stop21" />
    <stop
       offset="0.923077"
       stop-color="#f6f5f4"
       id="stop23" />
    <stop
       offset="1"
       stop-color="#c0bfbc"
       id="stop25" />
  </linearGradient>
  <clipPath
     id="c">
    <rect
       height="128"
       width="128"
       id="rect28" />
  </clipPath>
  <clipPath
     id="d">
    <rect
       height="128"
       width="128"
       id="rect31" />
  </clipPath>
  <filter
     id="e"
     height="1"
     width="1"
     x="0"
     y="0">
    <feColorMatrix
       in="SourceGraphic"
       type="matrix"
       values="0 0 0 0 1 0 0 0 0 1 0 0 0 0 1 0 0 0 1 0"
       id="feColorMatrix34" />
  </filter>
  <mask
     id="f">
    <g
       clip-path="url(#d)"
       filter="url(#e)"
       id="g115">
      <g
         clip-path="url(#c)"
         id="g113">
        <path
           d="m 16 40 h 96 c 4.417969 0 8 3.582031 8 8 v 60 c 0 4.417969 -3.582031 8 -8 8 h -96 c -4.417969 0 -8 -3.582031 -8 -8 v -60 c 0 -4.417969 3.582031 -8 8 -8 z m 0 0"
           fill="url(#a)"
           id="path37" />
        <path
           d="m 16 28 h 96 c 4.417969 0 8 3.582031 8 8 v 56 c 0 4.417969 -3.582031 8 -8 8 h -96 c -4.417969 0 -8 -3.582031 -8 -8 v -56 c 0 -4.417969 3.582031 -8 8 -8 z m 0 0"
           fill="#99c1f1"
           id="path39" />
        <path
           d="m 16 30 h 96 c 3.3125 0 6 2.6875 6 6 v 38 c 0 3.3125 -2.6875 6 -6 6 h -96 c -3.3125 0 -6 -2.6875 -6 -6 v -38 c 0 -3.3125 2.6875 -6 6 -6 z m 0 0"
           fill="#241f31"
           id="path41" />
        <path
           d="m 49 50 l 2 -2 h 2 l 2 2 l -2 2 h -2 z m 0 0"
           fill="#99c1f1"
           id="path43" />
        <path
           d="m 27 38 l 2 -2 h 10 l 2 2 l -2 2 h -10 z m 0 0"
           fill="#99c1f1"
           id="path45" />
        <path
           d="m 27 54 l 2 -2 h 10 l 2 2 l -2 2 h -10 z m 0 0"
           fill="#99c1f1"
           id="path47" />
        <path
           d="m 27 70 l 2 -2 h 10 l 2 2 l -2 2 h -10 z m 0 0"
           fill="#99c1f1"
           id="path49" />
        <path
           d="m 42 39 l 2 2 v 10 l -2 2 l -2 -2 v -10 z m 0 0"
           fill="#99c1f1"
           id="path51" />
        <path
           d="m 42 55 l 2 2 v 10 l -2 2 l -2 -2 v -10 z m 0 0"
           fill="#99c1f1"
           id="path53" />
        <path
           d="m 63 38 l 2 -2 h 10 l 2 2 l -2 2 h -10 z m 0 0"
           fill="#99c1f1"
           id="path55" />
        <path
           d="m 63 70 l 2 -2 h 10 l 2 2 l -2 2 h -10 z m 0 0"
           fill="#99c1f1"
           id="path57" />
        <path
           d="m 78 39 l 2 2 v 10 l -2 2 l -2 -2 v -10 z m 0 0"
           fill="#99c1f1"
           id="path59" />
        <path
           d="m 102 55 l 2 2 v 10 l -2 2 l -2 -2 v -10 z m 0 0"
           fill="#99c1f1"
           id="path61" />
        <path
           d="m 62 55 l 2 2 v 10 l -2 2 l -2 -2 v -10 z m 0 0"
           fill="#99c1f1"
           id="path63" />
        <path
           d="m 87 38 l 2 -2 h 10 l 2 2 l -2 2 h -10 z m 0 0"
           fill="#99c1f1"
           id="path65" />
        <path
           d="m 87 54 l 2 -2 h 10 l 2 2 l -2 2 h -10 z m 0 0"
           fill="#99c1f1"
           id="path67" />
        <path
           d="m 63 54 l 2 -2 h 10 l 2 2 l -2 2 h -10 z m 0 0"
           fill="#99c1f1"
           id="path69" />
        <path
           d="m 87 70 l 2 -2 h 10 l 2 2 l -2 2 h -10 z m 0 0"
           fill="#99c1f1"
           id="path71" />
        <path
           d="m 86 39 l 2 2 v 10 l -2 2 l -2 -2 v -10 z m 0 0"
           fill="#99c1f1"
           id="path73" />
        <path
           d="m 86 55 l 2 2 v 10 l -2 2 l -2 -2 v -10 z m 0 0"
           fill="#99c1f1"
           id="path75" />
        <path
           d="m 49 58 l 2 -2 h 2 l 2 2 l -2 2 h -2 z m 0 0"
           fill="#99c1f1"
           id="path77" />
        <path
           d="m 28 91 c 0 2.761719 -2.238281 5 -5 5 s -5 -2.238281 -5 -5 s 2.238281 -5 5 -5 s 5 2.238281 5 5 z m 0 0"
           fill="#62a0ea"
           id="path79" />
        <path
           d="m 28 89 c 0 2.761719 -2.238281 5 -5 5 s -5 -2.238281 -5 -5 s 2.238281 -5 5 -5 s 5 2.238281 5 5 z m 0 0"
           fill="#e7f1fc"
           id="path81" />
        <path
           d="m 44 91 c 0 2.761719 -2.238281 5 -5 5 s -5 -2.238281 -5 -5 s 2.238281 -5 5 -5 s 5 2.238281 5 5 z m 0 0"
           fill="#62a0ea"
           id="path83" />
        <path
           d="m 44 89 c 0 2.761719 -2.238281 5 -5 5 s -5 -2.238281 -5 -5 s 2.238281 -5 5 -5 s 5 2.238281 5 5 z m 0 0"
           fill="#e7f1fc"
           id="path85" />
        <path
           d="m 108 128 h -36 c -4.417969 0 -8 -3.582031 -8 -8 v -14 c 0 -4.417969 3.582031 -8 8 -8 h 36 c 4.417969 0 8 3.582031 8 8 v 14 c 0 4.417969 -3.582031 8 -8 8 z m 0 0"
           fill="#3584e4"
           id="path87" />
        <path
           d="m 108 126 h -36 c -4.417969 0 -8 -3.582031 -8 -8 v -24 c 0 -4.417969 3.582031 -8 8 -8 h 36 c 4.417969 0 8 3.582031 8 8 v 24 c 0 4.417969 -3.582031 8 -8 8 z m 0 0"
           fill="url(#b)"
           id="path89" />
        <path
           d="m 108 122 h -36 c -4.417969 0 -8 -3.582031 -8 -8 v -42 c 0 -4.417969 3.582031 -8 8 -8 h 36 c 4.417969 0 8 3.582031 8 8 v 42 c 0 4.417969 -3.582031 8 -8 8 z m 0 0"
           fill="#f6f5f4"
           id="path91" />
        <path
           d="m 74 82 c 0 1.65625 -1.34375 3 -3 3 s -3 -1.34375 -3 -3 s 1.34375 -3 3 -3 s 3 1.34375 3 3 z m 0 0"
           fill="#99c1f1"
           id="path93" />
        <path
           d="m 76 80 h 22 v 4 h -22 z m 0 0"
           fill="#99c1f1"
           id="path95" />
        <path
           d="m 74 90 c 0 1.65625 -1.34375 3 -3 3 s -3 -1.34375 -3 -3 s 1.34375 -3 3 -3 s 3 1.34375 3 3 z m 0 0"
           fill="#99c1f1"
           id="path97" />
        <path
           d="m 76 88 h 30 v 4 h -30 z m 0 0"
           fill="#99c1f1"
           id="path99" />
        <path
           d="m 74 102 c 0 1.65625 -1.34375 3 -3 3 s -3 -1.34375 -3 -3 s 1.34375 -3 3 -3 s 3 1.34375 3 3 z m 0 0"
           fill="#99c1f1"
           id="path101" />
        <path
           d="m 76 100 h 16 v 4 h -16 z m 0 0"
           fill="#99c1f1"
           id="path103" />
        <path
           d="m 74 110 c 0 1.65625 -1.34375 3 -3 3 s -3 -1.34375 -3 -3 s 1.34375 -3 3 -3 s 3 1.34375 3 3 z m 0 0"
           fill="#99c1f1"
           id="path105" />
        <path
           d="m 76 108 h 26 v 4 h -26 z m 0 0"
           fill="#99c1f1"
           id="path107" />
        <path
           d="m 74 74 c 0 1.65625 -1.34375 3 -3 3 s -3 -1.34375 -3 -3 s 1.34375 -3 3 -3 s 3 1.34375 3 3 z m 0 0"
           fill="#99c1f1"
           id="path109" />
        <path
           d="m 76 72 h 24 v 4 h -24 z m 0 0"
           fill="#99c1f1"
           id="path111" />
      </g>
    </g>
  </mask>
  <mask
     id="g">
    <g
       filter="url(#e)"
       id="g120">
      <rect
         fill-opacity="0.8"
         height="128"
         width="128"
         id="rect118" />
    </g>
  </mask>
  <linearGradient
     id="h"
     gradientTransform="matrix(0,0.37,-0.98462,0,295.38501,-30.360001)"
     gradientUnits="userSpaceOnUse"
     x1="300"
     x2="428"
     y1="235"
     y2="235">
    <stop
       offset="0"
       stop-color="#f9f06b"
       id="stop123" />
    <stop
       offset="1"
       stop-color="#f5c211"
       id="stop125" />
  </linearGradient>
  <clipPath
     id="i">
    <rect
       height="128"
       width="128"
       id="rect128" />
  </clipPath>
  <clipPath
     id="j">
    <rect
       height="128"
       width="128"
       id="rect131" />
  </clipPath>
  <path
     d="m 16,26 h 96 c 4.41797,0 8,3.582031 8,8 v 60 c 0,4.41797 -3.58203,8 -8,8 H 16 C 11.582031,102 8,98.41797 8,94 V 34 c 0,-4.417969 3.582031,-8 8,-8 z m 0,0"
     fill="url(#a)"
     id="path134"
     style="fill:url(#linearGradient271)" />
  <path
     d="m 16,14 h 96 c 4.41797,0 8,3.582031 8,8 v 56 c 0,4.417969 -3.58203,8 -8,8 H 16 C 11.582031,86 8,82.417969 8,78 V 22 c 0,-4.417969 3.582031,-8 8,-8 z m 0,0"
     fill="#99c1f1"
     id="path136" />
  <path
     d="m 16,16 h 96 c 3.3125,0 6,2.6875 6,6 v 38 c 0,3.3125 -2.6875,6 -6,6 H 16 c -3.3125,0 -6,-2.6875 -6,-6 V 22 c 0,-3.3125 2.6875,-6 6,-6 z m 0,0"
     fill="#241f31"
     id="path138" />
  <g
     fill="#99c1f1"
     id="g176"
     transform="translate(0,-14)">
    <path
       d="m 49,50 2,-2 h 2 l 2,2 -2,2 h -2 z m 0,0"
       id="path140" />
    <path
       d="m 27,38 2,-2 h 10 l 2,2 -2,2 H 29 Z m 0,0"
       id="path142" />
    <path
       d="m 27,54 2,-2 h 10 l 2,2 -2,2 H 29 Z m 0,0"
       id="path144" />
    <path
       d="m 27,70 2,-2 h 10 l 2,2 -2,2 H 29 Z m 0,0"
       id="path146" />
    <path
       d="m 42,39 2,2 v 10 l -2,2 -2,-2 V 41 Z m 0,0"
       id="path148" />
    <path
       d="m 42,55 2,2 v 10 l -2,2 -2,-2 V 57 Z m 0,0"
       id="path150" />
    <path
       d="m 63,38 2,-2 h 10 l 2,2 -2,2 H 65 Z m 0,0"
       id="path152" />
    <path
       d="m 63,70 2,-2 h 10 l 2,2 -2,2 H 65 Z m 0,0"
       id="path154" />
    <path
       d="m 78,39 2,2 v 10 l -2,2 -2,-2 V 41 Z m 0,0"
       id="path156" />
    <path
       d="m 102,55 2,2 v 10 l -2,2 -2,-2 V 57 Z m 0,0"
       id="path158" />
    <path
       d="m 62,55 2,2 v 10 l -2,2 -2,-2 V 57 Z m 0,0"
       id="path160" />
    <path
       d="m 87,38 2,-2 h 10 l 2,2 -2,2 H 89 Z m 0,0"
       id="path162" />
    <path
       d="m 87,54 2,-2 h 10 l 2,2 -2,2 H 89 Z m 0,0"
       id="path164" />
    <path
       d="m 63,54 2,-2 h 10 l 2,2 -2,2 H 65 Z m 0,0"
       id="path166" />
    <path
       d="m 87,70 2,-2 h 10 l 2,2 -2,2 H 89 Z m 0,0"
       id="path168" />
    <path
       d="m 86,39 2,2 v 10 l -2,2 -2,-2 V 41 Z m 0,0"
       id="path170" />
    <path
       d="m 86,55 2,2 v 10 l -2,2 -2,-2 V 57 Z m 0,0"
       id="path172" />
    <path
       d="m 49,58 2,-2 h 2 l 2,2 -2,2 h -2 z m 0,0"
       id="path174" />
  </g>
  <path
     d="m 28,77 c 0,2.761719 -2.238281,5 -5,5 -2.761719,0 -5,-2.238281 -5,-5 0,-2.761719 2.238281,-5 5,-5 2.761719,0 5,2.238281 5,5 z m 0,0"
     fill="#62a0ea"
     id="path178" />
  <path
     d="m 28,75 c 0,2.761719 -2.238281,5 -5,5 -2.761719,0 -5,-2.238281 -5,-5 0,-2.761719 2.238281,-5 5,-5 2.761719,0 5,2.238281 5,5 z m 0,0"
     fill="#e7f1fc"
     id="path180" />
  <path
     d="m 44,77 c 0,2.761719 -2.238281,5 -5,5 -2.761719,0 -5,-2.238281 -5,-5 0,-2.761719 2.238281,-5 5,-5 2.761719,0 5,2.238281 5,5 z m 0,0"
     fill="#62a0ea"
     id="path182" />
  <path
     d="m 44,75 c 0,2.761719 -2.238281,5 -5,5 -2.761719,0 -5,-2.238281 -5,-5 0,-2.761719 2.238281,-5 5,-5 2.761719,0 5,2.238281 5,5 z m 0,0"
     fill="#e7f1fc"
     id="path184" />
  <path
     d="M 108,114 H 72 c -4.417969,0 -8,-3.58203 -8,-8 V 92 c 0,-4.41797 3.582031,-8 8,-8 h 36 c 4.41797,0 8,3.58203 8,8 v 14 c 0,4.41797 -3.58203,8 -8,8 z m 0,0"
     fill="#3584e4"
     id="path186" />
  <path
     d="M 108,112 H 72 c -4.417969,0 -8,-3.58203 -8,-8 V 80 c 0,-4.417969 3.582031,-8 8,-8 h 36 c 4.41797,0 8,3.582031 8,8 v 24 c 0,4.41797 -3.58203,8 -8,8 z m 0,0"
     fill="url(#b)"
     id="path188"
     style="fill:url(#linearGradient273)" />
  <path
     d="M 108,108 H 72 c -4.417969,0 -8,-3.58203 -8,-8 V 58 c 0,-4.417969 3.582031,-8 8,-8 h 36 c 4.41797,0 8,3.582031 8,8 v 42 c 0,4.41797 -3.58203,8 -8,8 z m 0,0"
     fill="#f6f5f4"
     id="path190" />
  <path
     d="m 74,68 c 0,1.65625 -1.34375,3 -3,3 -1.65625,0 -3,-1.34375 -3,-3 0,-1.65625 1.34375,-3 3,-3 1.65625,0 3,1.34375 3,3 z m 0,0"
     fill="#99c1f1"
     id="path192" />
  <path
     d="m 76,66 h 22 v 4 H 76 Z m 0,0"
     fill="#99c1f1"
     id="path194" />
  <path
     d="m 74,76 c 0,1.65625 -1.34375,3 -3,3 -1.65625,0 -3,-1.34375 -3,-3 0,-1.65625 1.34375,-3 3,-3 1.65625,0 3,1.34375 3,3 z m 0,0"
     fill="#99c1f1"
     id="path196" />
  <path
     d="m 76,74 h 30 v 4 H 76 Z m 0,0"
     fill="#99c1f1"
     id="path198" />
  <path
     d="m 74,88 c 0,1.65625 -1.34375,3 -3,3 -1.65625,0 -3,-1.34375 -3,-3 0,-1.65625 1.34375,-3 3,-3 1.65625,0 3,1.34375 3,3 z m 0,0"
     fill="#99c1f1"
     id="path200" />
  <path
     d="m 76,86 h 16 v 4 H 76 Z m 0,0"
     fill="#99c1f1"
     id="path202" />
  <path
     d="m 74,96 c 0,1.65625 -1.34375,3 -3,3 -1.65625,0 -3,-1.34375 -3,-3 0,-1.65625 1.34375,-3 3,-3 1.65625,0 3,1.34375 3,3 z m 0,0"
     fill="#99c1f1"
     id="path204" />
  <path
     d="m 76,94 h 26 v 4 H 76 Z m 0,0"
     fill="#99c1f1"
     id="path206" />
  <path
     d="m 74,60 c 0,1.65625 -1.34375,3 -3,3 -1.65625,0 -3,-1.34375 -3,-3 0,-1.65625 1.34375,-3 3,-3 1.65625,0 3,1.34375 3,3 z m 0,0"
     fill="#99c1f1"
     id="path208" />
  <path
     d="m 76,58 h 24 v 4 H 76 Z m 0,0"
     fill="#99c1f1"
     id="path210" />
  <g
     clip-path="url(#j)"
     mask="url(#f)"
     id="g218"
     transform="translate(0,-14)">
    <g
       clip-path="url(#i)"
       mask="url(#g)"
       id="g216">
      <path
         d="M 128,80.640625 V 128 H 0 V 80.640625 Z m 0,0"
         fill="url(#h)"
         id="path212"
         style="fill:url(#h)" />
      <path
         d="M 13.308594,80.640625 60.664062,128 H 81.878906 L 34.519531,80.640625 Z m 42.421875,0 L 103.09375,128 h 21.21484 L 76.945312,80.640625 Z m 42.429687,0 L 128,110.48047 V 89.269531 l -8.62891,-8.628906 z M 0,88.546875 V 109.76172 L 18.238281,128 h 21.214844 z m 0,0"
         id="path214" />
    </g>
  </g>
</svg>
